<svg width="108" height="81" viewBox="0 0 108 81" fill="none" xmlns="http://www.w3.org/2000/svg">
<path d="M36.3018 0.540466H51.9367L51.7674 52.3025H36.3018V0.540466Z" fill="#B3DBE0"/>
<path d="M49.6867 51.9055C49.6867 55.6688 49.0522 59.3952 47.8194 62.872C46.5866 66.3489 44.7797 69.508 42.5018 72.1691C40.2239 74.8301 37.5196 76.941 34.5434 78.3811C31.5672 79.8213 28.3773 80.5625 25.1558 80.5625C21.9344 80.5625 18.7445 79.8213 15.7683 78.3811C12.7921 76.941 10.0878 74.8301 7.80992 72.1691C5.53202 69.508 3.72509 66.3489 2.4923 62.872C1.47828 60.0122 0.869042 56.9835 0.684744 53.9043C0.618751 52.8017 1.52043 51.9055 2.625 51.9055H12.049C13.1536 51.9055 14.0352 52.8048 14.181 53.8997C14.3165 54.9173 14.5556 55.9149 14.8945 56.8708C15.4527 58.445 16.2708 59.8754 17.3021 61.0802C18.3335 62.285 19.5579 63.2408 20.9055 63.8928C22.253 64.5449 23.6973 64.8805 25.1558 64.8805C26.6144 64.8805 28.0587 64.5449 29.4062 63.8928C30.7538 63.2408 31.9782 62.285 33.0096 61.0802C34.0409 59.8754 34.859 58.445 35.4172 56.8708C35.9754 55.2966 36.2627 53.6094 36.2627 51.9055H49.6867Z" fill="#B3DBE0"/>
<path d="M36.3142 0.540466H50.8874C51.8497 0.540466 52.6756 1.22576 52.8531 2.17155L65.5591 69.873H50.627L36.3142 0.540466Z" fill="#99CFD6"/>
<path d="M64.875 1.28125L80.3285 0.540466L93.3526 69.873H78.3946L64.875 1.28125Z" fill="#6AADB5"/>
<path d="M107.503 2.92825C107.748 1.69193 106.801 0.540466 105.541 0.540466H94.0769C93.1219 0.540466 92.3001 1.21574 92.1149 2.15268L78.7302 69.873H92.6284C93.5834 69.873 94.4052 69.1977 94.5904 68.2608L101.123 35.2067L107.503 2.92825Z" fill="#558B91"/>
<path d="M80.1814 0.540466H66.2832C65.3282 0.540466 64.5064 1.21574 64.3212 2.15268L50.9365 69.873H64.8347C65.7897 69.873 66.6115 69.1977 66.7967 68.2608L80.1814 0.540466Z" fill="#80C3CC"/>
</svg>
